# xmcd CD database file
#
# Track frame offsets:
#	150
#	25562
#	35725
#	49712
#	70077
#	89105
#	113262
#	124787
#	139342
#	158048
#	179612
#	195337
#	210625
#	232725
#	247716
#	285730
#
# Disc length: 4153 seconds
#
# Revision: 0
# Processed by: cddbd v1.5.1PL2 Copyright (c) Steve Scherf et al.
# Submitted via: CD2WAV32(EN) R3.19
#
DISCID=d3103710
DTITLE=kenjijammer - hula-hula dance best her home
DYEAR=1900
DGENRE=
TTITLE0=daddy's delight
TTITLE1=hawaiian mango(demo)
TTITLE2=melody
TTITLE3=charcoal magic
TTITLE4=let's refire together
TTITLE5=seafood
TTITLE6=dear my friend
TTITLE7=slow starter
TTITLE8=carry me on(radio orca mix)
TTITLE9=little wishes
TTITLE10=mirrorball love(radio edit)
TTITLE11=lazy sunday dreamer
TTITLE12=winter song
TTITLE13=again&again
TTITLE14=daddy's delight(ape sounds remix)
TTITLE15=mirrrorball love(radio edit)
EXTD=
EXTT0=
EXTT1=
EXTT2=
EXTT3=
EXTT4=
EXTT5=
EXTT6=
EXTT7=
EXTT8=
EXTT9=
EXTT10=
EXTT11=
EXTT12=
EXTT13=
EXTT14=
EXTT15=
PLAYORDER=
